<?xml version="1.0" encoding="UTF-8"?>
<svg version="1.1" xmlns="http://www.w3.org/2000/svg" width="1008" height="1092">
<path d="M0 0 C332.64 0 665.28 0 1008 0 C1008 360.36 1008 720.72 1008 1092 C675.36 1092 342.72 1092 0 1092 C0 731.64 0 371.28 0 0 Z " fill="#272C3F" transform="translate(0,0)"/>
<path d="M0 0 C0.96233551 -0.00172211 1.92467102 -0.00344421 2.91616821 -0.00521851 C19.57598159 -0.00183681 35.79376028 1.2175343 52.125 4.625 C53.17324951 4.84043457 54.22149902 5.05586914 55.30151367 5.27783203 C77.9844665 10.04082655 100.27918893 16.10402336 121.09570312 26.46142578 C123.01998501 27.41591449 124.95434644 28.34745778 126.890625 29.27734375 C136.23290587 33.80501748 145.13835564 38.8722972 153.9375 44.375 C154.53836426 44.7477002 155.13922852 45.12040039 155.75830078 45.50439453 C164.15069632 50.7238617 172.08726793 56.36205628 179.9375 62.375 C180.948125 63.1175 181.95875 63.86 183 64.625 C188.73410539 68.83781212 194.16767526 73.20505582 199.390625 78.0390625 C201.39386403 79.87638909 203.42405518 81.64753832 205.48828125 83.4140625 C210.63826115 87.90931254 215.4696587 92.72110385 220.30053711 97.55273438 C221.86358734 99.11360327 223.43447365 100.66627888 225.00585938 102.21875 C231.43181446 108.60826049 237.35948421 115.21706771 242.9375 122.375 C243.49574463 123.08994629 244.05398926 123.80489258 244.62915039 124.54150391 C246.10297537 126.45317548 247.55694926 128.37751718 249 130.3125 C249.50313721 130.98708252 250.00627441 131.66166504 250.5246582 132.35668945 C263.8626476 150.35988912 263.8626476 150.35988912 263.9375 155.375 C262.69686732 157.98063195 261.45488467 160.17658787 259.875 162.5625 C259.42890381 163.25375977 258.98280762 163.94501953 258.52319336 164.65722656 C250.56024357 176.74976455 241.48939884 188.09518284 231.53515625 198.6015625 C229.51562993 200.75774849 227.57546889 202.93915131 225.6484375 205.17578125 C221.78121348 209.61730401 217.67421508 213.78582794 213.5 217.9375 C212.78779297 218.65357422 212.07558594 219.36964844 211.34179688 220.10742188 C203.65839811 227.77686351 195.46938515 234.67310726 186.9375 241.375 C185.4525 242.55255859 185.4525 242.55255859 183.9375 243.75390625 C175.8915754 250.08203531 167.53991079 255.83211257 158.9375 261.375 C157.91398437 262.04144531 156.89046875 262.70789063 155.8359375 263.39453125 C130.92585757 279.19666206 104.30561113 290.09016157 76.20898438 298.671875 C74.69965556 299.1390791 73.19551677 299.62340589 71.69726562 300.125 C64.72209872 302.38627605 57.62325432 303.58292456 50.39013672 304.68261719 C48.33509147 304.99654889 46.28287908 305.32558116 44.23046875 305.65625 C28.87670189 308.07358508 13.57577494 308.55455632 -1.9375 308.5 C-2.72421082 308.4984491 -3.51092163 308.49689819 -4.32147217 308.49530029 C-34.84737835 308.42473361 -34.84737835 308.42473361 -45.31640625 305.953125 C-48.23105006 305.33951578 -51.1506345 304.95822923 -54.10229492 304.57006836 C-63.52110955 303.27910485 -72.54756645 301.04293655 -81.6875 298.4375 C-82.87263184 298.10153809 -84.05776367 297.76557617 -85.27880859 297.41943359 C-91.07317097 295.72322243 -96.59225706 293.85560589 -102.05957031 291.29272461 C-105.17991157 289.86301193 -108.38991481 288.77195408 -111.625 287.625 C-119.38589126 284.78377117 -126.68730844 281.28716626 -134.00195312 277.45458984 C-136.1265575 276.34143812 -138.25824247 275.24269871 -140.390625 274.14453125 C-160.17581378 263.88898709 -177.78990427 251.29807708 -195.36425781 237.67236328 C-196.7373124 236.62342537 -198.1416594 235.61552888 -199.5546875 234.62109375 C-200.05226563 234.20988281 -200.54984375 233.79867187 -201.0625 233.375 C-201.0625 232.715 -201.0625 232.055 -201.0625 231.375 C-201.61550781 231.13910156 -202.16851562 230.90320313 -202.73828125 230.66015625 C-218.09001501 222.17155053 -232.43141709 204.08198393 -243.0625 190.375 C-243.99839674 189.22549302 -244.93741098 188.07851981 -245.87890625 186.93359375 C-268.14940261 159.73523414 -268.14940261 159.73523414 -267.9921875 153.65625 C-266.79141594 149.41823273 -264.74040862 146.42396433 -262.1875 142.875 C-261.45309692 141.83158447 -261.45309692 141.83158447 -260.70385742 140.76708984 C-256.12871752 134.33016989 -251.29101712 128.11109037 -246.33496094 121.96484375 C-245.09547616 120.41620122 -243.87939882 118.84891509 -242.6640625 117.28125 C-241.59285156 115.90453125 -241.59285156 115.90453125 -240.5 114.5 C-239.87996094 113.69820313 -239.25992187 112.89640625 -238.62109375 112.0703125 C-238.10675781 111.51085937 -237.59242188 110.95140625 -237.0625 110.375 C-236.4025 110.375 -235.7425 110.375 -235.0625 110.375 C-234.83449707 109.82175049 -234.60649414 109.26850098 -234.37158203 108.69848633 C-232.68364486 105.702571 -230.55464464 103.62557478 -228.1171875 101.19921875 C-227.62848175 100.71097122 -227.139776 100.22272369 -226.63626099 99.71968079 C-225.60134333 98.68777802 -224.56400249 97.65830056 -223.52441406 96.63110352 C-221.95849331 95.08325108 -220.40053642 93.5277365 -218.84375 91.97070312 C-213.42206419 86.56777241 -207.927016 81.30003184 -202.0625 76.375 C-201.45535156 75.86106689 -200.84820312 75.34713379 -200.22265625 74.81762695 C-172.62964606 51.64929041 -141.76124952 32.31762073 -108.0625 19.375 C-106.37833984 18.69824219 -106.37833984 18.69824219 -104.66015625 18.0078125 C-94.22452192 13.88156051 -83.57346779 10.88298881 -72.71508789 8.07983398 C-70.96522224 7.61486738 -69.22170385 7.12522307 -67.48608398 6.60961914 C-59.67636507 4.3161339 -51.82394477 3.12738241 -43.75 2.1875 C-43.01693634 2.10095154 -42.28387268 2.01440308 -41.52859497 1.92523193 C-27.69491462 0.34462966 -13.91511441 -0.00636071 0 0 Z " fill="#272B3E" transform="translate(512.0625,385.625)"/>
<path d="M0 0 C0.96233551 -0.00172211 1.92467102 -0.00344421 2.91616821 -0.00521851 C19.57598159 -0.00183681 35.79376028 1.2175343 52.125 4.625 C53.17324951 4.84043457 54.22149902 5.05586914 55.30151367 5.27783203 C77.9844665 10.04082655 100.27918893 16.10402336 121.09570312 26.46142578 C123.01998501 27.41591449 124.95434644 28.34745778 126.890625 29.27734375 C136.23290587 33.80501748 145.13835564 38.8722972 153.9375 44.375 C154.53836426 44.7477002 155.13922852 45.12040039 155.75830078 45.50439453 C164.15069632 50.7238617 172.08726793 56.36205628 179.9375 62.375 C180.948125 63.1175 181.95875 63.86 183 64.625 C188.73410539 68.83781212 194.16767526 73.20505582 199.390625 78.0390625 C201.39386403 79.87638909 203.42405518 81.64753832 205.48828125 83.4140625 C210.63826115 87.90931254 215.4696587 92.72110385 220.30053711 97.55273438 C221.86358734 99.11360327 223.43447365 100.66627888 225.00585938 102.21875 C231.43181446 108.60826049 237.35948421 115.21706771 242.9375 122.375 C243.49574463 123.08994629 244.05398926 123.80489258 244.62915039 124.54150391 C246.10297537 126.45317548 247.55694926 128.37751718 249 130.3125 C249.50313721 130.98708252 250.00627441 131.66166504 250.5246582 132.35668945 C263.8626476 150.35988912 263.8626476 150.35988912 263.9375 155.375 C262.69686732 157.98063195 261.45488467 160.17658787 259.875 162.5625 C259.42890381 163.25375977 258.98280762 163.94501953 258.52319336 164.65722656 C250.56024357 176.74976455 241.48939884 188.09518284 231.53515625 198.6015625 C229.51562993 200.75774849 227.57546889 202.93915131 225.6484375 205.17578125 C221.78121348 209.61730401 217.67421508 213.78582794 213.5 217.9375 C212.78779297 218.65357422 212.07558594 219.36964844 211.34179688 220.10742188 C203.65839811 227.77686351 195.46938515 234.67310726 186.9375 241.375 C185.4525 242.55255859 185.4525 242.55255859 183.9375 243.75390625 C175.8915754 250.08203531 167.53991079 255.83211257 158.9375 261.375 C157.91398437 262.04144531 156.89046875 262.70789063 155.8359375 263.39453125 C130.92585757 279.19666206 104.30561113 290.09016157 76.20898438 298.671875 C74.69965556 299.1390791 73.19551677 299.62340589 71.69726562 300.125 C64.72209872 302.38627605 57.62325432 303.58292456 50.39013672 304.68261719 C48.33509147 304.99654889 46.28287908 305.32558116 44.23046875 305.65625 C28.87670189 308.07358508 13.57577494 308.55455632 -1.9375 308.5 C-2.72421082 308.4984491 -3.51092163 308.49689819 -4.32147217 308.49530029 C-34.84737835 308.42473361 -34.84737835 308.42473361 -45.31640625 305.953125 C-48.23105006 305.33951578 -51.1506345 304.95822923 -54.10229492 304.57006836 C-63.52110955 303.27910485 -72.54756645 301.04293655 -81.6875 298.4375 C-82.87263184 298.10153809 -84.05776367 297.76557617 -85.27880859 297.41943359 C-91.07317097 295.72322243 -96.59225706 293.85560589 -102.05957031 291.29272461 C-105.17991157 289.86301193 -108.38991481 288.77195408 -111.625 287.625 C-119.38589126 284.78377117 -126.68730844 281.28716626 -134.00195312 277.45458984 C-136.1265575 276.34143812 -138.25824247 275.24269871 -140.390625 274.14453125 C-160.17581378 263.88898709 -177.78990427 251.29807708 -195.36425781 237.67236328 C-196.7373124 236.62342537 -198.1416594 235.61552888 -199.5546875 234.62109375 C-200.05226563 234.20988281 -200.54984375 233.79867187 -201.0625 233.375 C-201.0625 232.715 -201.0625 232.055 -201.0625 231.375 C-201.61550781 231.13910156 -202.16851562 230.90320313 -202.73828125 230.66015625 C-218.09001501 222.17155053 -232.43141709 204.08198393 -243.0625 190.375 C-243.99839674 189.22549302 -244.93741098 188.07851981 -245.87890625 186.93359375 C-268.14940261 159.73523414 -268.14940261 159.73523414 -267.9921875 153.65625 C-266.79141594 149.41823273 -264.74040862 146.42396433 -262.1875 142.875 C-261.45309692 141.83158447 -261.45309692 141.83158447 -260.70385742 140.76708984 C-256.12871752 134.33016989 -251.29101712 128.11109037 -246.33496094 121.96484375 C-245.09547616 120.41620122 -243.87939882 118.84891509 -242.6640625 117.28125 C-241.59285156 115.90453125 -241.59285156 115.90453125 -240.5 114.5 C-239.87996094 113.69820313 -239.25992187 112.89640625 -238.62109375 112.0703125 C-238.10675781 111.51085937 -237.59242188 110.95140625 -237.0625 110.375 C-236.4025 110.375 -235.7425 110.375 -235.0625 110.375 C-234.83449707 109.82175049 -234.60649414 109.26850098 -234.37158203 108.69848633 C-232.68364486 105.702571 -230.55464464 103.62557478 -228.1171875 101.19921875 C-227.62848175 100.71097122 -227.139776 100.22272369 -226.63626099 99.71968079 C-225.60134333 98.68777802 -224.56400249 97.65830056 -223.52441406 96.63110352 C-221.95849331 95.08325108 -220.40053642 93.5277365 -218.84375 91.97070312 C-213.42206419 86.56777241 -207.927016 81.30003184 -202.0625 76.375 C-201.45535156 75.86106689 -200.84820312 75.34713379 -200.22265625 74.81762695 C-172.62964606 51.64929041 -141.76124952 32.31762073 -108.0625 19.375 C-106.37833984 18.69824219 -106.37833984 18.69824219 -104.66015625 18.0078125 C-94.22452192 13.88156051 -83.57346779 10.88298881 -72.71508789 8.07983398 C-70.96522224 7.61486738 -69.22170385 7.12522307 -67.48608398 6.60961914 C-59.67636507 4.3161339 -51.82394477 3.12738241 -43.75 2.1875 C-43.01693634 2.10095154 -42.28387268 2.01440308 -41.52859497 1.92523193 C-27.69491462 0.34462966 -13.91511441 -0.00636071 0 0 Z M-52.0625 38.375 C-52.92794434 38.53516602 -53.79338867 38.69533203 -54.68505859 38.86035156 C-78.94583928 43.41196586 -102.29367911 52.91137481 -124.0625 64.375 C-124.99835938 64.85324219 -125.93421875 65.33148438 -126.8984375 65.82421875 C-145.35280944 75.494753 -163.63308508 88.00531922 -178.79296875 102.2890625 C-181.39195932 104.6778077 -184.11526361 106.86202145 -186.875 109.0625 C-190.82851428 112.25978652 -193.96431158 115.3655797 -197.0625 119.375 C-199.55270733 121.91585561 -202.09047538 124.40221242 -204.640625 126.8828125 C-210.17779817 132.30665172 -215.29175962 137.84225632 -220.109375 143.93359375 C-221.73289751 145.96299689 -223.41893083 147.85024575 -225.1875 149.75 C-227.3452545 152.16985793 -227.3452545 152.16985793 -226.85083008 154.80249023 C-226.02455183 157.49883395 -225.11192456 159.0016163 -223.32421875 161.16015625 C-222.75687012 161.85012695 -222.18952148 162.54009766 -221.60498047 163.25097656 C-220.99283691 163.9725293 -220.38069336 164.69408203 -219.75 165.4375 C-219.12496582 166.18612305 -218.49993164 166.93474609 -217.85595703 167.70605469 C-213.04392344 173.39577009 -207.96204977 178.70419885 -202.5859375 183.859375 C-200.19540301 186.24250845 -198.15961388 188.7361317 -196.0625 191.375 C-194.97006865 192.41047996 -193.84425507 193.41190981 -192.6875 194.375 C-189.39890243 197.17458678 -186.24276312 200.07883562 -183.1105957 203.04980469 C-176.41983058 209.37627968 -169.59100188 215.05141556 -162.0625 220.375 C-161.10601562 221.0659375 -160.14953125 221.756875 -159.1640625 222.46875 C-130.61237451 242.72650292 -100.79120736 257.91066982 -66.80371094 266.63671875 C-64.16913979 267.34627906 -61.58828031 268.15818522 -58.9921875 268.99609375 C-53.88604974 270.55254542 -48.86916909 271.09485011 -43.5625 271.5 C-41.80179924 271.64502882 -40.04136181 271.79330284 -38.28125 271.9453125 C-37.51748047 272.00477051 -36.75371094 272.06422852 -35.96679688 272.12548828 C-34.0625 272.375 -34.0625 272.375 -32.0625 273.375 C-25.42346928 274.38650022 -18.72670668 274.54502399 -12.0234375 274.578125 C-11.09890778 274.58382507 -10.17437805 274.58952515 -9.22183228 274.59539795 C-7.2772941 274.60477771 -5.33274052 274.61135367 -3.38818359 274.61523438 C-0.46552709 274.62490724 2.45641498 274.65598535 5.37890625 274.6875 C16.66102621 274.75065736 26.92706874 273.84377156 37.9375 271.375 C39.58056093 271.08905377 41.22611972 270.81662268 42.875 270.56640625 C60.71756088 267.81111778 77.10730481 262.89567847 93.9375 256.375 C94.76717285 256.05515137 95.5968457 255.73530273 96.45166016 255.40576172 C131.63260539 241.67956583 161.90322385 219.17486921 189.375 193.625 C190.3501355 192.72261597 190.3501355 192.72261597 191.3449707 191.80200195 C195.24084207 188.14127372 198.82451263 184.31958914 202.30541992 180.26318359 C203.75167692 178.58998215 205.22885215 176.96407759 206.74609375 175.35546875 C217.43648966 165.44448406 217.43648966 165.44448406 222.87890625 153.3671875 C221.62831989 150.72071844 220.01398569 148.7395542 218.125 146.5 C217.30257813 145.52417969 216.48015625 144.54835938 215.6328125 143.54296875 C215.19098633 143.02524902 214.74916016 142.5075293 214.29394531 141.97412109 C212.94802257 140.38740511 211.62490634 138.78391498 210.3046875 137.17578125 C198.82840305 123.33134229 186.15140101 110.40816792 171.9375 99.375 C170.7849223 98.38278094 169.63847786 97.3833661 168.5 96.375 C151.99254852 82.17000629 132.59101144 69.65656359 112.9375 60.375 C111.61685547 59.74658203 111.61685547 59.74658203 110.26953125 59.10546875 C97.25416266 53.04957347 84.00510418 48.19791156 70.26806641 44.08642578 C68.1281918 43.43321034 66.0081685 42.73762959 63.88671875 42.02734375 C27.9212678 30.43517361 -15.3639629 31.24700286 -52.0625 38.375 Z " fill="#FCF7FB" transform="translate(512.0625,385.625)"/>
<path d="M0 0 C24.15985427 16.92953292 40.76025667 40.09161568 46.16796875 69.3203125 C48.50394381 83.69439543 47.60073284 97.94299059 44 112 C43.75636719 113.19367188 43.51273438 114.38734375 43.26171875 115.6171875 C39.57086426 132.16481 30.42850885 145.75392659 19 158 C18.05447266 159.0828125 18.05447266 159.0828125 17.08984375 160.1875 C-0.07567152 178.89979796 -26.27486299 189.16759861 -51.2421875 190.30078125 C-76.62509447 190.91660369 -76.62509447 190.91660369 -84 186 C-85.74087487 185.58469325 -87.49302608 185.21583374 -89.25 184.875 C-112.82375433 179.15928876 -132.33511095 159.89028781 -144.83105469 139.95605469 C-149.85885067 131.54279207 -153.28511479 122.38746976 -156 113 C-156.30035156 112.03835938 -156.60070312 111.07671875 -156.91015625 110.0859375 C-163.3948496 85.7758778 -159.15422181 58.97982966 -147.125 37.125 C-143.07386487 30.20096356 -138.46442393 23.88546832 -133 18 C-132.15824219 17.07832031 -131.31648438 16.15664063 -130.44921875 15.20703125 C-113.99636444 -2.05537016 -94.97931163 -10.43217038 -72 -15 C-71.18329834 -15.17885742 -70.36659668 -15.35771484 -69.52514648 -15.54199219 C-46.30330569 -19.75393972 -19.62250236 -12.66697558 0 0 Z " fill="#FCF7FB" transform="translate(566,453)"/>
<path d="M0 0 C1.3018646 1.02889299 2.59349419 2.07085813 3.875 3.125 C4.555625 3.6715625 5.23625 4.218125 5.9375 4.78125 C10.7110718 8.7592265 14.38446595 12.99890143 17.875 18.125 C18.30554688 18.70507812 18.73609375 19.28515625 19.1796875 19.8828125 C28.5486855 33.32528789 31.28906124 52.53062218 28.46044922 68.45947266 C27.32331573 73.17557308 25.69680099 77.63357928 23.875 82.125 C23.50246094 83.04539062 23.12992188 83.96578125 22.74609375 84.9140625 C19.55793721 91.91245491 14.92861564 98.34660255 9.875 104.125 C9.215 104.125 8.555 104.125 7.875 104.125 C7.38 105.61 7.38 105.61 6.875 107.125 C4.92386746 108.69650042 3.01095533 110.10924288 0.9375 111.5 C0.34702881 111.89920654 -0.24344238 112.29841309 -0.85180664 112.7097168 C-16.55193452 123.15451842 -33.69465196 127.97027186 -52.50195312 124.71337891 C-69.81128308 120.89427781 -84.0253101 111.91695511 -95.125 98.125 C-95.91003906 97.18140625 -95.91003906 97.18140625 -96.7109375 96.21875 C-107.40223487 81.96368684 -110.39396899 63.44394545 -109.125 46.125 C-105.67445686 25.54645957 -93.54566614 9.06256831 -77 -3.0625 C-53.45250415 -18.17003318 -22.37503905 -16.28453615 0 0 Z " fill="#262B3D" transform="translate(550.125,483.875)"/>
<path d="M0 0 C10.23 0 20.46 0 31 0 C31 23.1 31 46.2 31 70 C54.76 70 78.52 70 103 70 C103 81.55 103 93.1 103 105 C89.58773907 105.02254861 76.17549062 105.04091369 62.76321507 105.05181217 C56.53606528 105.0570416 50.30892908 105.06414033 44.08178711 105.07543945 C38.07773135 105.08626621 32.07368871 105.09227638 26.06962395 105.09487724 C23.7733839 105.09673188 21.47714461 105.10035321 19.18091011 105.10573006 C15.97679186 105.11293768 12.7727285 105.11399106 9.56860352 105.11352539 C8.12930733 105.1189183 8.12930733 105.1189183 6.66093445 105.12442017 C5.79290192 105.1230455 4.92486938 105.12167084 4.03053284 105.12025452 C2.8925794 105.12163721 2.8925794 105.12163721 1.731637 105.12304783 C0 105 0 105 -1 104 C-1.09742068 102.66160527 -1.12631559 101.31813175 -1.12698364 99.97619629 C-1.12980347 99.10960892 -1.13262329 98.24302155 -1.13552856 97.35017395 C-1.13350433 96.3922142 -1.1314801 95.43425446 -1.12939453 94.44726562 C-1.13114685 93.44410812 -1.13289917 92.44095062 -1.13470459 91.40739441 C-1.13912516 88.07366228 -1.13618439 84.73998271 -1.1328125 81.40625 C-1.13348548 79.10078928 -1.13445545 76.79532864 -1.13571167 74.48986816 C-1.13718892 69.65095343 -1.13503321 64.81205713 -1.13037109 59.97314453 C-1.1246738 53.75505355 -1.12795266 47.53700572 -1.13394356 41.31891632 C-1.13754843 36.55616935 -1.13641092 31.7934327 -1.13381577 27.03068542 C-1.13314629 24.73723851 -1.13397562 22.44379068 -1.13629532 20.15034485 C-1.13882064 16.95111594 -1.13498295 13.75195797 -1.12939453 10.55273438 C-1.13141876 9.59477463 -1.13344299 8.63681488 -1.13552856 7.64982605 C-1.13270874 6.78323868 -1.12988892 5.91665131 -1.12698364 5.02380371 C-1.12660662 4.2664669 -1.12622959 3.5091301 -1.12584114 2.72884369 C-1 1 -1 1 0 0 Z " fill="#FAF5F8" transform="translate(220,728)"/>
<path d="M0 0 C1.13795344 0.00138269 1.13795344 0.00138269 2.29889584 0.00279331 C3.16692837 0.00141865 4.0349609 0.00004398 4.92929745 -0.00137234 C5.88882824 0.00222294 6.84835903 0.00581821 7.83696651 0.00952244 C8.84173031 0.00937641 9.8464941 0.00923038 10.88170528 0.00907993 C14.22024817 0.00977953 17.55873604 0.01757409 20.89726925 0.02539158 C23.20512518 0.02725559 25.51298151 0.02867957 27.82083797 0.0296793 C33.90854126 0.03350578 39.99622086 0.04333718 46.08391476 0.05438328 C52.29057654 0.0645946 58.49724212 0.06917632 64.70390987 0.0742197 C76.89207302 0.08495933 89.08021234 0.10255718 101.268363 0.12304783 C101.268363 11.67304783 101.268363 23.22304783 101.268363 35.12304783 C77.508363 35.12304783 53.748363 35.12304783 29.268363 35.12304783 C29.268363 58.22304783 29.268363 81.32304783 29.268363 105.12304783 C19.038363 105.12304783 8.808363 105.12304783 -1.731637 105.12304783 C-3.26002631 103.59465852 -2.85755954 102.23069515 -2.85862064 100.09924412 C-2.86144047 99.23265675 -2.86426029 98.36606937 -2.86716557 97.47322178 C-2.86514133 96.51526203 -2.8631171 95.55730228 -2.86103153 94.57031345 C-2.86278385 93.56715595 -2.86453617 92.56399845 -2.86634159 91.53044224 C-2.87076216 88.19671011 -2.86782139 84.86303054 -2.8644495 81.52929783 C-2.86512248 79.22383711 -2.86609246 76.91837647 -2.86734867 74.61291599 C-2.86882592 69.77400126 -2.86667021 64.93510495 -2.86200809 60.09619236 C-2.8563108 53.87810138 -2.85958966 47.66005355 -2.86558056 41.44196415 C-2.86918543 36.67921718 -2.86804792 31.91648053 -2.86545277 27.15373325 C-2.86478329 24.86028634 -2.86561262 22.56683851 -2.86793232 20.27339268 C-2.87045764 17.07416376 -2.86661995 13.8750058 -2.86103153 10.6757822 C-2.86305576 9.71782246 -2.86507999 8.75986271 -2.86716557 7.77287388 C-2.86434574 6.90628651 -2.86152592 6.03969913 -2.85862064 5.14685154 C-2.85824362 4.38951473 -2.85786659 3.63217793 -2.85747814 2.85189152 C-2.68558959 0.49043453 -2.36186526 0.16783101 0 0 Z " fill="#FAF6F9" transform="translate(221.7316370010376,246.87695217132568)"/>
<path d="M0 0 C1.29349365 0.00523682 2.5869873 0.01047363 3.91967773 0.01586914 C4.9496714 0.01799156 4.9496714 0.01799156 6.00047302 0.02015686 C8.20144949 0.0257706 10.40232557 0.03832532 12.60327148 0.05102539 C14.09220231 0.05603863 15.58113473 0.06060184 17.07006836 0.06469727 C20.72700223 0.07574446 24.38387707 0.09301826 28.04077148 0.11352539 C28.06389208 13.65616717 28.08168512 27.19880429 28.09258366 40.74146175 C28.09781311 47.02914563 28.10491187 53.31681606 28.11621094 59.60449219 C28.12703762 65.66690262 28.13304785 71.72930008 28.13564873 77.79171944 C28.13750337 80.11028816 28.14112473 82.42885613 28.14650154 84.74741936 C28.15370906 87.98267047 28.15476255 91.21786722 28.15429688 94.453125 C28.15789215 95.42200653 28.16148743 96.39088806 28.16519165 97.38912964 C28.16381699 98.26557632 28.16244232 99.14202301 28.161026 100.04502869 C28.16194779 100.81103866 28.16286959 101.57704863 28.16381931 102.36627102 C28.04077148 104.11352539 28.04077148 104.11352539 27.04077148 105.11352539 C23.87464486 105.20888781 20.73036521 105.23903176 17.56396484 105.22705078 C16.07144951 105.22726982 16.07144951 105.22726982 14.54878235 105.22749329 C11.24270486 105.2267937 7.93668294 105.21899918 4.63061523 105.21118164 C2.34517955 105.20931762 0.05974347 105.20789364 -2.22569275 105.20689392 C-8.25421239 105.20306746 -14.2827081 105.19323609 -20.31121826 105.18218994 C-26.45755693 105.17197857 -32.60389944 105.16739689 -38.75024414 105.16235352 C-50.81991782 105.15161393 -62.88956744 105.1340161 -74.95922852 105.11352539 C-74.95922852 93.56352539 -74.95922852 82.01352539 -74.95922852 70.11352539 C-51.52922852 70.11352539 -28.09922852 70.11352539 -3.95922852 70.11352539 C-3.99884239 47.45054972 -3.99884239 47.45054972 -4.04931641 24.78759766 C-4.05383301 20.41223145 -4.05383301 20.41223145 -4.05467224 18.36631775 C-4.05621152 16.93219188 -4.05973611 15.49806733 -4.06480408 14.06394958 C-4.07208376 11.89628844 -4.07313586 9.72870663 -4.07275391 7.56103516 C-4.07497452 6.33747818 -4.07719513 5.1139212 -4.07948303 3.85328674 C-3.91217998 0.04161747 -3.84232323 0.1474037 0 0 Z " fill="#F9F3F7" transform="translate(771.959228515625,727.886474609375)"/>
<path d="M0 0 C33.99 0 67.98 0 103 0 C103.04010881 25.91474736 103.04010881 25.91474736 103.04882812 36.91992188 C103.05481722 44.44361064 103.06191927 51.9672873 103.07543945 59.4909668 C103.08626614 65.55337723 103.09227637 71.61577469 103.09487724 77.67819405 C103.09673189 79.99676277 103.10035325 82.31533074 103.10573006 84.63389397 C103.11293758 87.86914508 103.11399106 91.10434183 103.11352539 94.33959961 C103.11712067 95.30848114 103.12071594 96.27736267 103.12442017 97.27560425 C103.1230455 98.15205093 103.12167084 99.02849762 103.12025452 99.9315033 C103.12117631 100.69751327 103.1220981 101.46352324 103.12304783 102.25274563 C103 104 103 104 102 105 C92.1 105 82.2 105 72 105 C72 81.9 72 58.8 72 35 C48.24 35 24.48 35 0 35 C0 23.45 0 11.9 0 0 Z " fill="#FAF6F8" transform="translate(697,247)"/>
<path d="M0 0 C0.33 0 0.66 0 1 0 C1.24634115 10.37840061 1.46563565 20.75698406 1.65021229 31.13667774 C1.73676942 35.95618511 1.83270878 40.77512785 1.94995117 45.59399414 C2.06271073 50.24270173 2.15100596 54.89128431 2.22220421 59.54080772 C2.25372257 61.31643074 2.29412187 63.0919186 2.34345436 64.867136 C2.41095488 67.35021192 2.44712303 69.83188936 2.47583008 72.31567383 C2.5031572 73.05294708 2.53048431 73.79022034 2.55863953 74.54983521 C2.56330872 76.60212708 2.56330872 76.60212708 2 80 C-2.06507051 83.49002541 -6.10972939 83.39792146 -11.25 83.25 C-12.34828125 83.24226563 -12.34828125 83.24226563 -13.46875 83.234375 C-18.84527726 83.15472274 -18.84527726 83.15472274 -20 82 C-23.96 81.67 -27.92 81.34 -32 81 C-32 57.57 -32 34.14 -32 10 C-31.67 10 -31.34 10 -31 10 C-31 33.1 -31 56.2 -31 80 C-16.15 79.505 -16.15 79.505 -1 79 C-0.67 52.93 -0.34 26.86 0 0 Z " fill="#675F6C" transform="translate(800,272)"/>
<path d="M0 0 C0.33 0 0.66 0 1 0 C1.33 21.78 1.66 43.56 2 66 C2.66 65.67 3.32 65.34 4 65 C4.0625 67.25 4.0625 67.25 3 70 C0.13325156 71.69300427 -2.87413371 72.86963623 -6 74 C-6.495 73.505 -6.495 73.505 -7 73 C-8.43049412 72.92530057 -9.86458212 72.91675049 -11.296875 72.9375 C-12.61171875 72.94910156 -12.61171875 72.94910156 -13.953125 72.9609375 C-15.80208639 72.98676098 -17.65104481 73.01279893 -19.5 73.0390625 C-20.82257813 73.05066406 -20.82257813 73.05066406 -22.171875 73.0625 C-23.3798877 73.07990234 -23.3798877 73.07990234 -24.61230469 73.09765625 C-27.16336113 72.99331856 -29.51274829 72.56131669 -32 72 C-31.67 71.01 -31.34 70.02 -31 69 C-20.77 69.33 -10.54 69.66 0 70 C0 46.9 0 23.8 0 0 Z " fill="#5E5E6B" transform="translate(251,282)"/>
<path d="M0 0 C-0.57094302 3.82358813 -2.23511428 5.62237895 -4.875 8.375 C-10.66160472 14.59956031 -15.81428932 21.2731155 -21 28 C-21.99 27.34 -22.98 26.68 -24 26 C-23.3125 23.125 -23.3125 23.125 -22 20 C-19.5 18.875 -19.5 18.875 -17 18 C-15.65589738 15.98264795 -15.65589738 15.98264795 -15 14 C-14.34 14 -13.68 14 -13 14 C-12.731875 13.071875 -12.46375 12.14375 -12.1875 11.1875 C-11.05426774 8.14566604 -10.35320739 7.05905646 -8 5 C-7.34 4.01 -6.68 3.02 -6 2 C-3.83252916 0.71306419 -2.53199972 0 0 0 Z " fill="#333047" transform="translate(281,488)"/>
<path d="M0 0 C11.55 4.235 11.55 4.235 13.25 7.125 C13.4975 7.74375 13.745 8.3625 14 9 C14.66 8.67 15.32 8.34 16 8 C16 8.66 16 9.32 16 10 C16.66 10.33 17.32 10.66 18 11 C21.74101038 13.90967474 25.36650021 16.95800017 29 20 C28.67 20.99 28.34 21.98 28 23 C21.45367868 19.01744711 15.35600039 14.79928397 9.4375 9.93359375 C5.78819945 7.03871591 1.92486932 4.50281522 -2 2 C-1.34 1.34 -0.68 0.68 0 0 Z " fill="#423C4E" transform="translate(676,434)"/>
<path d="M0 0 C2.6875 0.875 2.6875 0.875 5 2 C1.75593802 5.35219738 -1.62209917 8.53676364 -5.0625 11.6875 C-6.31740234 12.83798828 -6.31740234 12.83798828 -7.59765625 14.01171875 C-9.69534604 15.7478555 -11.51613066 16.92728969 -14 18 C-14.66 17.01 -15.32 16.02 -16 15 C-14.68 14.01 -13.36 13.02 -12 12 C-11.34 12.33 -10.68 12.66 -10 13 C-9.690625 12.05125 -9.38125 11.1025 -9.0625 10.125 C-8 7 -8 7 -7 5 C-6.01 5.33 -5.02 5.66 -4 6 C-3.896875 5.38125 -3.79375 4.7625 -3.6875 4.125 C-3 2 -3 2 0 0 Z " fill="#363548" transform="translate(687,585)"/>
<path d="M0 0 C0.66 0.33 1.32 0.66 2 1 C1.27296875 1.71655762 0.5459375 2.43311523 -0.203125 3.17138672 C-2.89174588 5.82388658 -5.573807 8.48293535 -8.25390625 11.14404297 C-9.41617986 12.29624094 -10.58023967 13.44663992 -11.74609375 14.59521484 C-13.41876279 16.24370414 -15.08496235 17.89849505 -16.75 19.5546875 C-17.2749707 20.06933563 -17.79994141 20.58398376 -18.34082031 21.11422729 C-19.59907712 22.37208852 -20.80502498 23.68187263 -22 25 C-22 25.66 -22 26.32 -22 27 C-22.680625 27.53625 -23.36125 28.0725 -24.0625 28.625 C-27.31048941 31.25103399 -29.73831136 34.15066657 -32.3515625 37.390625 C-34 39 -34 39 -37 39 C-36.16855469 38.07767578 -36.16855469 38.07767578 -35.3203125 37.13671875 C-34.23363281 35.92435547 -34.23363281 35.92435547 -33.125 34.6875 C-32.04605469 33.48673828 -32.04605469 33.48673828 -30.9453125 32.26171875 C-28.88394498 29.95810917 -28.88394498 29.95810917 -27 27 C-26.34 27 -25.68 27 -25 27 C-24.77779785 26.45182617 -24.5555957 25.90365234 -24.32666016 25.33886719 C-22.59300021 22.28247 -20.26246275 20.01501048 -17.7734375 17.578125 C-17.26575836 17.07327576 -16.75807922 16.56842651 -16.23501587 16.04827881 C-14.61966158 14.44407904 -12.99747791 12.84699144 -11.375 11.25 C-10.27558302 10.16061893 -9.17661941 9.0707801 -8.078125 7.98046875 C-5.3906398 5.31498115 -2.69700979 2.65584857 0 0 Z " fill="#E3E2E8" transform="translate(302,469)"/>
<path d="M0 0 C1.65 0 3.3 0 5 0 C4.34 1.65 3.68 3.3 3 5 C3.33 5.33 3.66 5.66 4 6 C4.17830165 7.93208837 4.26793417 9.87271372 4.3125 11.8125 C4.34988281 12.87082031 4.38726562 13.92914063 4.42578125 15.01953125 C4 18 4 18 0 22 C0 14.74 0 7.48 0 0 Z " fill="#232235" transform="translate(252,283)"/>
<path d="M0 0 C3.30720398 0.46640056 5.24394291 1.72236121 7.75 3.875 C8.36359375 4.38804687 8.9771875 4.90109375 9.609375 5.4296875 C11 7 11 7 11 10 C12.32 10.33 13.64 10.66 15 11 C14.67 11.66 14.34 12.32 14 13 C14.66 13 15.32 13 16 13 C16 14.65 16 16.3 16 18 C10.33333333 12.33333333 4.66666667 6.66666667 -1 1 C-0.67 0.67 -0.34 0.34 0 0 Z " fill="#393546" transform="translate(575,458)"/>
<path d="M0 0 C10.56 0 21.12 0 32 0 C31 3 31 3 29 4 C26.30170926 4.09791023 23.63515539 4.1390625 20.9375 4.125 C20.19177734 4.12886719 19.44605469 4.13273437 18.67773438 4.13671875 C13.12663501 4.12663501 13.12663501 4.12663501 12 3 C9.98405418 2.76572222 7.961526 2.58663876 5.9375 2.4375 C4.83277344 2.35371094 3.72804688 2.26992188 2.58984375 2.18359375 C1.73519531 2.12300781 0.88054688 2.06242187 0 2 C0 1.34 0 0.68 0 0 Z " fill="#3D3D4F" transform="translate(768,351)"/>
<path d="M0 0 C1.98 0 3.96 0 6 0 C6.33 0.66 6.66 1.32 7 2 C7.66 1.67 8.32 1.34 9 1 C9 1.66 9 2.32 9 3 C10.32 3.33 11.64 3.66 13 4 C13 5.32 13 6.64 13 8 C13.78375 8.103125 14.5675 8.20625 15.375 8.3125 C18 9 18 9 20 12 C19.01 12.495 19.01 12.495 18 13 C15.64453125 11.7421875 15.64453125 11.7421875 12.8125 9.875 C11.8328125 9.23046875 10.853125 8.5859375 9.84375 7.921875 C6.51111408 5.66959908 3.20969364 3.42510186 0 1 C0 0.67 0 0.34 0 0 Z " fill="#3D3A4A" transform="translate(350,605)"/>
<path d="M0 0 C0.66 0 1.32 0 2 0 C2.33 0.99 2.66 1.98 3 3 C-1.47307108 7.04165813 -5.88276824 10.80173015 -11 14 C-11.66 12.68 -12.32 11.36 -13 10 C-10.52095956 5.77104866 -7.41915225 4.81500896 -3 3 C-1.24850835 1.41754725 -1.24850835 1.41754725 0 0 Z " fill="#373649" transform="translate(310,458)"/>
<path d="M0 0 C3.82763599 1.74410699 7.54315241 3.59575652 11 6 C11.33 6.99 11.66 7.98 12 9 C4.28267891 6.47191206 -3.35945902 3.74972528 -11 1 C-7.0482967 -1.18495906 -4.28569401 -1.35830739 0 0 Z " fill="#473E4C" transform="translate(547,440)"/>
<path d="M0 0 C1.32 0.66 2.64 1.32 4 2 C3.57847656 2.44730469 3.15695312 2.89460938 2.72265625 3.35546875 C-1.5377979 7.98399766 -1.5377979 7.98399766 -3 14 C-3.66 13.34 -4.32 12.68 -5 12 C-5.99 12 -6.98 12 -8 12 C-8.33 11.01 -8.66 10.02 -9 9 C-8.67 8.34 -8.34 7.68 -8 7 C-6.68 7 -5.36 7 -4 7 C-3.71125 6.21625 -3.4225 5.4325 -3.125 4.625 C-2 2 -2 2 0 0 Z " fill="#212333" transform="translate(466,488)"/>
<path d="M0 0 C0.66 1.32 1.32 2.64 2 4 C0.73548068 5.31858428 -0.53685475 6.62967631 -1.8125 7.9375 C-2.52019531 8.66839844 -3.22789062 9.39929688 -3.95703125 10.15234375 C-6 12 -6 12 -9 13 C-9.4375 10.9375 -9.4375 10.9375 -9 8 C-6.46789291 4.84317357 -3.64388509 1.82194254 0 0 Z " fill="#3A3A4E" transform="translate(706,569)"/>
<path d="M0 0 C0.96550781 0.00902344 1.93101562 0.01804687 2.92578125 0.02734375 C5.28412099 0.05069365 7.64192286 0.08343953 10 0.125 C10 0.455 10 0.785 10 1.125 C9.14535156 1.17398437 8.29070313 1.22296875 7.41015625 1.2734375 C6.30542969 1.34820312 5.20070313 1.42296875 4.0625 1.5 C2.96035156 1.56960938 1.85820312 1.63921875 0.72265625 1.7109375 C-0.62505859 1.91589844 -0.62505859 1.91589844 -2 2.125 C-2.33 2.785 -2.66 3.445 -3 4.125 C-5.31 4.125 -7.62 4.125 -10 4.125 C-10 3.795 -10 3.465 -10 3.125 C-15.94 3.62 -15.94 3.62 -22 4.125 C-15.23322075 -0.38618617 -7.85070559 -0.14077127 0 0 Z " fill="#59596A" transform="translate(510,470.875)"/>
<path d="M0 0 C0.33 0.66 0.66 1.32 1 2 C1.99 2 2.98 2 4 2 C4 2.66 4 3.32 4 4 C6.97 4.99 9.94 5.98 13 7 C12.01 8.485 12.01 8.485 11 10 C5.68972746 8.53967505 1.53669968 6.01679014 -3 3 C-2.01 2.01 -1.02 1.02 0 0 Z " fill="#3A3849" transform="translate(379,620)"/>
<path d="M0 0 C-0.33 0.66 -0.66 1.32 -1 2 C-0.01 2.66 0.98 3.32 2 4 C-0.75125089 3.71766639 -3.50061337 3.42452667 -6.25 3.125 C-7.02730469 3.04636719 -7.80460938 2.96773438 -8.60546875 2.88671875 C-15.72431144 2.09573623 -15.72431144 2.09573623 -19 0 C-12.35872858 -2.71688376 -6.88640495 -1.47000434 0 0 Z " fill="#535063" transform="translate(571,388)"/>
<path d="M0 0 C1.32 0 2.64 0 4 0 C3.67 1.98 3.34 3.96 3 6 C3.66 6 4.32 6 5 6 C5 8.31 5 10.62 5 13 C3.68 13.33 2.36 13.66 1 14 C-0.512545 8.83955235 -1.33500455 5.34001821 0 0 Z " fill="#353441" transform="translate(610,508)"/>
<path d="M0 0 C0.66 0 1.32 0 2 0 C3.11346788 2.80033839 3.03510273 3.90143703 2.00390625 6.796875 C1.52824219 7.77140625 1.05257812 8.7459375 0.5625 9.75 C0.08941406 10.73484375 -0.38367188 11.7196875 -0.87109375 12.734375 C-1.24363281 13.48203125 -1.61617187 14.2296875 -2 15 C-2.66 14.67 -3.32 14.34 -4 14 C-3.67 11.03 -3.34 8.06 -3 5 C-2.01 5 -1.02 5 0 5 C0 3.35 0 1.7 0 0 Z " fill="#352D41" transform="translate(572,559)"/>
<path d="M0 0 C0.72960937 0.13277344 1.45921875 0.26554688 2.2109375 0.40234375 C11.79229716 2.02289471 21.30224343 2.5864032 31 3 C31 3.33 31 3.66 31 4 C23.74 4.33 16.48 4.66 9 5 C8.67 4.01 8.34 3.02 8 2 C5.36 2 2.72 2 0 2 C0 1.34 0 0.68 0 0 Z " fill="#575665" transform="translate(461,690)"/>
<path d="M0 0 C4.48873309 3.52686171 6.58485642 8.58251782 8 14 C7.60546875 16.3125 7.60546875 16.3125 7 18 C6.67 17.34 6.34 16.68 6 16 C3.97536745 15.34786708 3.97536745 15.34786708 2 15 C2.165 14.46375 2.33 13.9275 2.5 13.375 C3.09660212 10.54113991 3.0656368 7.8880194 3 5 C2.01 4.67 1.02 4.34 0 4 C0 2.68 0 1.36 0 0 Z " fill="#484558" transform="translate(568,504)"/>
<path d="M0 0 C0.68707555 2.49064888 1 4.37886292 1 7 C-0.423125 7.8971875 -0.423125 7.8971875 -1.875 8.8125 C-5.52024721 11.36417305 -5.80378996 12.85927293 -7 17 C-7.99 17.33 -8.98 17.66 -10 18 C-8.64737628 13.25869791 -6.66645646 9.67711421 -3.875 5.625 C-3.15054687 4.56539063 -2.42609375 3.50578125 -1.6796875 2.4140625 C-0.84824219 1.21910156 -0.84824219 1.21910156 0 0 Z " fill="#453F49" transform="translate(457,495)"/>
<path d="M0 0 C4.29 0 8.58 0 13 0 C9.89085936 1.55457032 7.35139546 2.56755506 4.0625 3.5 C0.62081819 4.50149382 -2.70563866 5.57244342 -6 7 C-6 6.01 -6 5.02 -6 4 C-4.35 3.67 -2.7 3.34 -1 3 C-0.67 2.01 -0.34 1.02 0 0 Z " fill="#423E49" transform="translate(471,440)"/>
<path d="M0 0 C1.98 0.495 1.98 0.495 4 1 C4 1.66 4 2.32 4 3 C3.01 3.33 2.02 3.66 1 4 C0.34 3.67 -0.32 3.34 -1 3 C-0.67 2.01 -0.34 1.02 0 0 Z M-1 4 C-0.01 4.33 0.98 4.66 2 5 C1.67 11.27 1.34 17.54 1 24 C0.34 24 -0.32 24 -1 24 C-1.10511147 18.19551126 -0.82237453 12.75662172 0 7 C-0.33 6.01 -0.66 5.02 -1 4 Z " fill="#222235" transform="translate(217,241)"/>
<path d="M0 0 C0.33 0 0.66 0 1 0 C1 5.61 1 11.22 1 17 C1.66 17 2.32 17 3 17 C3.06058594 17.62648438 3.12117188 18.25296875 3.18359375 18.8984375 C3.26738281 19.71570313 3.35117187 20.53296875 3.4375 21.375 C3.51871094 22.18710937 3.59992188 22.99921875 3.68359375 23.8359375 C3.89090114 26.04272805 3.89090114 26.04272805 5 28 C4.34 28.66 3.68 29.32 3 30 C-0.73036382 20.1189768 -0.29041011 10.37947233 0 0 Z " fill="#59545F" transform="translate(441,530)"/>
<path d="M0 0 C0.66 0.99 1.32 1.98 2 3 C1.34 3 0.68 3 0 3 C-0.12375 4.0725 -0.2475 5.145 -0.375 6.25 C-0.89643936 9.37863615 -1.40088254 11.33480424 -3 14 C-4.65 14 -6.3 14 -8 14 C-5.40358635 9.28951041 -2.81136668 4.58696668 0 0 Z " fill="#413E4B" transform="translate(775,541)"/>
<path d="M0 0 C5.94 1.485 5.94 1.485 12 3 C11.67 3.66 11.34 4.32 11 5 C8.67624308 5.39460023 6.3406065 5.72230092 4 6 C2.66082739 6.30903983 1.32346746 6.62942911 0 7 C0.33 6.01 0.66 5.02 1 4 C0.67 2.68 0.34 1.36 0 0 Z " fill="#2F3343" transform="translate(584,431)"/>
<path d="M0 0 C0 0.33 0 0.66 0 1 C-5.07476794 2.26305335 -9.72796354 3.27036084 -15 3 C-14.34 2.67 -13.68 2.34 -13 2 C-13 1.34 -13 0.68 -13 0 C-7.95531271 -2.21474076 -5.14089313 -1.85072153 0 0 Z " fill="#3D394C" transform="translate(573,652)"/>
<path d="M0 0 C1.32 0.33 2.64 0.66 4 1 C4 2.32 4 3.64 4 5 C6.475 5.99 6.475 5.99 9 7 C8.34 8.32 7.68 9.64 7 11 C4.03 8.36 1.06 5.72 -2 3 C-1.34 2.67 -0.68 2.34 0 2 C0 1.34 0 0.68 0 0 Z " fill="#3E394B" transform="translate(321,577)"/>
<path d="M0 0 C1.15518918 0.90484792 2.29885406 1.8244206 3.4375 2.75 C4.07558594 3.26046875 4.71367188 3.7709375 5.37109375 4.296875 C7.18810554 6.19667629 7.60423197 7.43586908 8 10 C5 10 5 10 3.359375 8.57421875 C2.82828125 7.95160156 2.2971875 7.32898438 1.75 6.6875 C1.20859375 6.07261719 0.6671875 5.45773437 0.109375 4.82421875 C-0.25671875 4.22222656 -0.6228125 3.62023437 -1 3 C-0.67 2.01 -0.34 1.02 0 0 Z " fill="#363345" transform="translate(736,483)"/>
<path d="M0 0 C0.33 0 0.66 0 1 0 C1.375 2.1875 1.375 2.1875 1 5 C-0.82869674 7.08832653 -2.69052559 8.38336791 -5 10 C-5.66 10 -6.32 10 -7 10 C-7 10.99 -7 11.98 -7 13 C-8.32 12.34 -9.64 11.68 -11 11 C-10.34 10.67 -9.68 10.34 -9 10 C-9 9.34 -9 8.68 -9 8 C-7.6078125 7.4121875 -7.6078125 7.4121875 -6.1875 6.8125 C-2.75780085 4.86227892 -1.76441425 3.4359646 0 0 Z " fill="#232333" transform="translate(587,610)"/>
<path d="M0 0 C0.33 0 0.66 0 1 0 C0.979375 1.11375 0.95875 2.2275 0.9375 3.375 C0.73619282 6.83215921 0.73619282 6.83215921 2 9 C0.35 9.33 -1.3 9.66 -3 10 C-3 9.34 -3 8.68 -3 8 C-4.32 8 -5.64 8 -7 8 C-7 7.34 -7 6.68 -7 6 C-6.34 6 -5.68 6 -5 6 C-4.67 5.34 -4.34 4.68 -4 4 C-4 4.66 -4 5.32 -4 6 C-3.34 6 -2.68 6 -2 6 C-1.34 4.02 -0.68 2.04 0 0 Z " fill="#222435" transform="translate(774,549)"/>
<path d="M0 0 C0.66 0.66 1.32 1.32 2 2 C1.8125 4.0625 1.8125 4.0625 1 6 C0.01 6.33 -0.98 6.66 -2 7 C-2.99 8.485 -2.99 8.485 -4 10 C-5.32 9.67 -6.64 9.34 -8 9 C-5.36 6.03 -2.72 3.06 0 0 Z " fill="#322D37" transform="translate(302,518)"/>
<path d="M0 0 C4.81033104 2.54664585 8.32442148 4.99027798 12 9 C9.69 8.67 7.38 8.34 5 8 C5 7.34 5 6.68 5 6 C2.525 5.01 2.525 5.01 0 4 C0 2.68 0 1.36 0 0 Z " fill="#36384B" transform="translate(316,623)"/>
<path d="M0 0 C2.04119788 1.61594832 4.04072937 3.2856382 6 5 C6 5.66 6 6.32 6 7 C6.66 7 7.32 7 8 7 C7.67 7.99 7.34 8.98 7 10 C5.51714758 9.04737966 4.03881799 8.08771595 2.5625 7.125 C1.73878906 6.59132813 0.91507812 6.05765625 0.06640625 5.5078125 C-2 4 -2 4 -3 2 C-2.01 1.34 -1.02 0.68 0 0 Z " fill="#434050" transform="translate(340,593)"/>
<path d="M0 0 C4.875 4.625 4.875 4.625 6 8 C6.66 8 7.32 8 8 8 C8.33 8.99 8.66 9.98 9 11 C6 11 6 11 4.140625 9.35546875 C3.51671875 8.64003906 2.8928125 7.92460938 2.25 7.1875 C1.61578125 6.47980469 0.9815625 5.77210938 0.328125 5.04296875 C-0.11015625 4.36878906 -0.5484375 3.69460938 -1 3 C-0.67 2.01 -0.34 1.02 0 0 Z " fill="#413F4F" transform="translate(297,552)"/>
<path d="M0 0 C3 1.1875 3 1.1875 5 3.1875 C4.34 3.1875 3.68 3.1875 3 3.1875 C3 3.8475 3 4.5075 3 5.1875 C0.69 4.8575 -1.62 4.5275 -4 4.1875 C-3.67 3.5275 -3.34 2.8675 -3 2.1875 C-3.66 1.5275 -4.32 0.8675 -5 0.1875 C-3 -0.8125 -3 -0.8125 0 0 Z " fill="#373546" transform="translate(493,601.8125)"/>
<path d="M0 0 C-0.99 0.495 -0.99 0.495 -2 1 C-1.34 1.66 -0.68 2.32 0 3 C-0.66 3.66 -1.32 4.32 -2 5 C-7.45454545 4.54545455 -7.45454545 4.54545455 -10 2 C-10 1.34 -10 0.68 -10 0 C-6.33694766 -0.74926071 -3.57644848 -1.2380014 0 0 Z " fill="#222333" transform="translate(536,642)"/>
<path d="M0 0 C1 4 1 4 0 6 C-0.99 6 -1.98 6 -3 6 C-3.9590625 7.0209375 -3.9590625 7.0209375 -4.9375 8.0625 C-5.618125 8.701875 -6.29875 9.34125 -7 10 C-8.32 9.67 -9.64 9.34 -11 9 C-7.37 6.03 -3.74 3.06 0 0 Z " fill="#353344" transform="translate(710,617)"/>
<path d="M0 0 C3.98069267 2.87494471 6.43571997 5.82117329 9 10 C5 10 5 10 3.375 8.5625 C2.92125 8.046875 2.4675 7.53125 2 7 C1.34 6.67 0.68 6.34 0 6 C0 4.02 0 2.04 0 0 Z " fill="#3D3947" transform="translate(712,512)"/>
<path d="M0 0 C0.86625 0.12375 1.7325 0.2475 2.625 0.375 C0.06830665 2.93169335 -2.46429772 5.22108031 -5.375 7.375 C-7.5703125 7.01953125 -7.5703125 7.01953125 -9.375 6.375 C-4.20576923 0.46730769 -4.20576923 0.46730769 0 0 Z " fill="#3A3844" transform="translate(325.375,496.625)"/>
<path d="M0 0 C4 0 4 0 5.75 1.125 C7.5133966 3.77009491 7.20694492 5.89582621 7 9 C5.82460004 8.07347299 4.65989423 7.13336613 3.5 6.1875 C2.52546875 5.40439453 2.52546875 5.40439453 1.53125 4.60546875 C0 3 0 3 0 0 Z " fill="#3A3748" transform="translate(716,465)"/>
<path d="M0 0 C0 0.99 0 1.98 0 3 C-3.3 3.66 -6.6 4.32 -10 5 C-9.67 3.68 -9.34 2.36 -9 1 C-5.6868424 -0.8804408 -3.58825658 -1.32898392 0 0 Z " fill="#3A3747" transform="translate(428,395)"/>
<path d="M0 0 C3.85478218 -0.35858439 5.57759458 -0.2754818 8.875 1.875 C9.57625 2.57625 10.2775 3.2775 11 4 C11 4.66 11 5.32 11 6 C6.48986609 5.46939601 3.61621781 3.69113883 0 1 C0 0.67 0 0.34 0 0 Z " fill="#3B3648" transform="translate(469,595)"/>
<path d="M0 0 C0.66 0.33 1.32 0.66 2 1 C-0.80804268 3.96404505 -3.18315774 6.44499019 -7 8 C-7 8.33 -7 8.66 -7 9 C-8.65 9 -10.3 9 -12 9 C-8.11327187 5.81994972 -4.10047867 2.89445553 0 0 Z " fill="#313141" transform="translate(366,463)"/>
<path d="M0 0 C2.42102911 1.18098981 3.82068009 2.2331559 5.5625 4.25 C2.2493604 5.29127245 0.96051692 5.43574123 -2.25 3.9375 C-2.971875 3.380625 -3.69375 2.82375 -4.4375 2.25 C-4.4375 1.59 -4.4375 0.93 -4.4375 0.25 C-2.4375 -0.75 -2.4375 -0.75 0 0 Z " fill="#373948" transform="translate(650.4375,460.75)"/>
<path d="M0 0 C0.80824219 0.11085938 1.61648438 0.22171875 2.44921875 0.3359375 C3.37154297 0.47902344 3.37154297 0.47902344 4.3125 0.625 C4.3125 1.945 4.3125 3.265 4.3125 4.625 C-1.6275 3.14 -1.6275 3.14 -7.6875 1.625 C-4.33422361 -0.61051759 -3.78006343 -0.54783528 0 0 Z " fill="#4A4357" transform="translate(597.6875,395.375)"/>
<path d="M0 0 C3.41775006 0 6.77881173 0.24982104 10.1875 0.5 C11.45980469 0.5928125 12.73210937 0.685625 14.04296875 0.78125 C15.01878906 0.8534375 15.99460937 0.925625 17 1 C17 1.33 17 1.66 17 2 C11.06 2.33 5.12 2.66 -1 3 C-0.67 2.01 -0.34 1.02 0 0 Z " fill="#4A4857" transform="translate(471,385)"/>
<path d="M0 0 C-5.16923077 4.06153846 -5.16923077 4.06153846 -9.375 3.75 C-10.24125 3.5025 -11.1075 3.255 -12 3 C-12 3.99 -12 4.98 -12 6 C-14 5 -14 5 -15 3 C-12.87790224 2.30359327 -10.75221473 1.61811643 -8.625 0.9375 C-6.84996094 0.36322266 -6.84996094 0.36322266 -5.0390625 -0.22265625 C-2 -1 -2 -1 0 0 Z " fill="#454255" transform="translate(605,680)"/>
<path d="M0 0 C-1.24054448 1.01170618 -2.4928702 2.00897797 -3.75 3 C-4.44609375 3.556875 -5.1421875 4.11375 -5.859375 4.6875 C-8 6 -8 6 -12 6 C-12 5.34 -12 4.68 -12 4 C-10.56988027 3.13353333 -9.13059381 2.28218171 -7.6875 1.4375 C-6.48673828 0.72400391 -6.48673828 0.72400391 -5.26171875 -0.00390625 C-3 -1 -3 -1 0 0 Z " fill="#383645" transform="translate(655,658)"/>
<path d="M0 0 C1.32 0.33 2.64 0.66 4 1 C2.33784732 2.33895632 0.67036393 3.67130142 -1 5 C-2.0828125 5.86625 -2.0828125 5.86625 -3.1875 6.75 C-5 8 -5 8 -7 8 C-6.875 6.1875 -6.875 6.1875 -6 4 C-2.9375 2.25 -2.9375 2.25 0 1 C0 0.67 0 0.34 0 0 Z " fill="#3A3745" transform="translate(647,617)"/>
<path d="M0 0 C0.66 0.66 1.32 1.32 2 2 C0.35 4.97 -1.3 7.94 -3 11 C-3.33 11 -3.66 11 -4 11 C-4 8.03 -4 5.06 -4 2 C-3.34 1.67 -2.68 1.34 -2 1 C-1.34 1.33 -0.68 1.66 0 2 C0 1.34 0 0.68 0 0 Z " fill="#33304D" transform="translate(420,485)"/>
<path d="M0 0 C0.33 0.66 0.66 1.32 1 2 C1.99 2.33 2.98 2.66 4 3 C3 5 3 5 1.3125 5.75 C-1.82673219 6.08937645 -4.08902106 5.12469641 -7 4 C-6.67 3.34 -6.34 2.68 -6 2 C-4.02 2 -2.04 2 0 2 C0 1.34 0 0.68 0 0 Z " fill="#232439" transform="translate(619,674)"/>
<path d="M0 0 C2.64 0 5.28 0 8 0 C8.33 1.65 8.66 3.3 9 5 C4.98525763 5 3.18024863 3.33218233 0 1 C0 0.67 0 0.34 0 0 Z " fill="#4A4455" transform="translate(663,428)"/>
<path d="M0 0 C4.95 1.98 4.95 1.98 10 4 C9.67 4.99 9.34 5.98 9 7 C4.94718288 5.77472971 1.55639236 4.30119506 -2 2 C-1.34 1.34 -0.68 0.68 0 0 Z " fill="#393545" transform="translate(630,408)"/>
<path d="M0 0 C-2.93828597 2.50298434 -5.17902761 3.46930939 -9 4 C-9.33 2.68 -9.66 1.36 -10 0 C-6.42355152 -1.2380014 -3.66305234 -0.74926071 0 0 Z " fill="#383543" transform="translate(618,636)"/>
<path d="M0 0 C0 4.32035599 -2.06845243 6.9179135 -5 10 C-7.8125 10.9375 -7.8125 10.9375 -10 11 C-6.79239749 7.19364503 -3.59253891 3.45436433 0 0 Z " fill="#353441" transform="translate(588,607)"/>
<path d="M0 0 C2.31 1.98 4.62 3.96 7 6 C6.67 6.99 6.34 7.98 6 9 C3.9375 9.6875 3.9375 9.6875 2 10 C2 7.69 2 5.38 2 3 C1.01 2.67 0.02 2.34 -1 2 C-0.67 1.34 -0.34 0.68 0 0 Z " fill="#37374B" transform="translate(287,596)"/>
<path d="M0 0 C-2.48952921 2.66735273 -4.63408134 4.55746343 -8 6 C-8.33 4.68 -8.66 3.36 -9 2 C-3.375 -1.125 -3.375 -1.125 0 0 Z " fill="#3A3847" transform="translate(660,612)"/>
<path d="M0 0 C1.65 1.32 3.3 2.64 5 4 C3.02 6.31 1.04 8.62 -1 11 C-2.13757948 6.44968209 -1.4283779 4.36915594 0 0 Z " fill="#39394C" transform="translate(722,548)"/>
<path d="M0 0 C1.10844919 3.32534757 0.84454356 5.62182575 0 9 C-1.65 9.33 -3.3 9.66 -5 10 C-4.34 9.67 -3.68 9.34 -3 9 C-2.65259077 7.00239695 -2.32033957 5.00212229 -2 3 C-1.34 2.01 -0.68 1.02 0 0 Z " fill="#222231" transform="translate(453,503)"/>
<path d="M0 0 C-0.33 1.32 -0.66 2.64 -1 4 C-3.31 4.33 -5.62 4.66 -8 5 C-8.33 4.01 -8.66 3.02 -9 2 C-5.62902617 0.50178941 -3.79557881 0 0 0 Z " fill="#484759" transform="translate(433,432)"/>
<path d="M0 0 C3.37503669 1.1858237 5.64722731 2.27573689 8 5 C7.67 5.66 7.34 6.32 7 7 C4.20171644 6.61402985 3.1794116 6.19863427 1.25 4.0625 C0 2 0 2 0 0 Z " fill="#333444" transform="translate(334,637)"/>
<path d="M0 0 C1.32 0.66 2.64 1.32 4 2 C-0.455 4.97 -0.455 4.97 -5 8 C-5 6.68 -5 5.36 -5 4 C-2.5 1.75 -2.5 1.75 0 0 Z " fill="#3D3B4D" transform="translate(669,602)"/>
<path d="M0 0 C1.35439668 2.70879335 1.06501451 5.00933268 1 8 C-2.875 6.25 -2.875 6.25 -4 4 C-4.66 3.67 -5.32 3.34 -6 3 C-5.67 2.34 -5.34 1.68 -5 1 C-2.4375 0.375 -2.4375 0.375 0 0 Z " fill="#222439" transform="translate(735,598)"/>
<path d="M0 0 C2.70272533 2.87164566 3.94791837 4.30991841 4.25 8.3125 C4.1675 9.199375 4.085 10.08625 4 11 C1.87961365 8.38485683 -0.13091744 5.80362384 -2 3 C-1.34 2.01 -0.68 1.02 0 0 Z " fill="#373345" transform="translate(764,515)"/>
<path d="M0 0 C0.66 0 1.32 0 2 0 C2.33 0.99 2.66 1.98 3 3 C2.34 3 1.68 3 1 3 C1 3.66 1 4.32 1 5 C-0.98 5.66 -2.96 6.32 -5 7 C-4.6875 5.0625 -4.6875 5.0625 -4 3 C-3.01 2.67 -2.02 2.34 -1 2 C-0.67 1.34 -0.34 0.68 0 0 Z " fill="#242433" transform="translate(598,598)"/>
<path d="M0 0 C2.31 0.66 4.62 1.32 7 2 C6.67 2.99 6.34 3.98 6 5 C3.625 5.1875 3.625 5.1875 1 5 C0.34 4.01 -0.32 3.02 -1 2 C-0.67 1.34 -0.34 0.68 0 0 Z " fill="#323042" transform="translate(348,600)"/>
<path d="M0 0 C1.65 1.32 3.3 2.64 5 4 C4.67 5.32 4.34 6.64 4 8 C1.95880212 6.38405168 -0.04072937 4.7143618 -2 3 C-2 2.34 -2 1.68 -2 1 C-1.34 0.67 -0.68 0.34 0 0 Z " fill="#34303F" transform="translate(331,585)"/>
<path d="M0 0 C0.66 0 1.32 0 2 0 C2 0.66 2 1.32 2 2 C2.66 2.33 3.32 2.66 4 3 C2.35830472 5.02054804 0.69088222 7.02043058 -1 9 C-1.33 9 -1.66 9 -2 9 C-2.20140476 5.37471432 -1.85776765 3.13498292 0 0 Z " fill="#3C394D" transform="translate(270,496)"/>
<path d="M0 0 C2 1 2 1 2.8125 2.875 C3 5 3 5 1.5625 6.75 C1.046875 7.1625 0.53125 7.575 0 8 C-0.66 7.67 -1.32 7.34 -2 7 C-2 2 -2 2 0 0 Z " fill="#212336" transform="translate(605,488)"/>
<path d="M0 0 C1.32 0.33 2.64 0.66 4 1 C3.67 1.66 3.34 2.32 3 3 C2.67 3 2.34 3 2 3 C1.67 4.32 1.34 5.64 1 7 C0.01 6.67 -0.98 6.34 -2 6 C-2.33 4.35 -2.66 2.7 -3 1 C-2.01 1.33 -1.02 1.66 0 2 C0 1.34 0 0.68 0 0 Z " fill="#202332" transform="translate(683,487)"/>
<path d="M0 0 C0.99 0.33 1.98 0.66 3 1 C3 1.66 3 2.32 3 3 C3.99 3.33 4.98 3.66 6 4 C6 4.66 6 5.32 6 6 C4.68 6.33 3.36 6.66 2 7 C0 4 0 4 0 0 Z " fill="#202638" transform="translate(672,480)"/>
<path d="M0 0 C1.75 2.5 1.75 2.5 3 5 C-0.63 4.01 -4.26 3.02 -8 2 C-4 0 -4 0 0 0 Z " fill="#5C515F" transform="translate(544,439)"/>
<path d="M0 0 C0 0.66 0 1.32 0 2 C-1.96466413 3.06775224 -3.96855359 4.06553465 -6 5 C-6.66 4.67 -7.32 4.34 -8 4 C-7.25 2.0625 -7.25 2.0625 -6 0 C-3.40292416 -1.05506206 -2.5386068 -1.2693034 0 0 Z " fill="#3E3A4D" transform="translate(404,404)"/>
<path d="M0 0 C1.79237442 2.68856164 2.98446183 4.9533855 4 8 C3.67 8.66 3.34 9.32 3 10 C1.35 8.02 -0.3 6.04 -2 4 C-1.34 2.68 -0.68 1.36 0 0 Z " fill="#433C4F" transform="translate(461,582)"/>
<path d="M0 0 C2.125 0.375 2.125 0.375 4 1 C3.19152271 2.16945792 2.37810888 3.33550461 1.5625 4.5 C1.11003906 5.1496875 0.65757812 5.799375 0.19140625 6.46875 C-0.20175781 6.9740625 -0.59492187 7.479375 -1 8 C-1.33 8 -1.66 8 -2 8 C-2.125 5.125 -2.125 5.125 -2 2 C-1.34 1.34 -0.68 0.68 0 0 Z " fill="#372F3F" transform="translate(564,576)"/>
<path d="M0 0 C0.33 1.32 0.66 2.64 1 4 C1.66 4 2.32 4 3 4 C2.67 6.31 2.34 8.62 2 11 C1.34 10.67 0.68 10.34 0 10 C-0.66 10.66 -1.32 11.32 -2 12 C-1.34 8.04 -0.68 4.08 0 0 Z " fill="#54505A" transform="translate(611,556)"/>
<path d="M0 0 C3 0 3 0 5.1875 2 C5.785625 2.66 6.38375 3.32 7 4 C6.34 5.32 5.68 6.64 5 8 C0 2.25 0 2.25 0 0 Z " fill="#3B394B" transform="translate(289,545)"/>
<path d="M0 0 C0 3 0 3 -1.25 4.75 C-3 6 -3 6 -5.1875 5.6875 C-5.785625 5.460625 -6.38375 5.23375 -7 5 C-7 4.01 -7 3.02 -7 2 C-4.69 1.34 -2.38 0.68 0 0 Z " fill="#202238" transform="translate(379,458)"/>
<path d="M0 0 C0.66 0.33 1.32 0.66 2 1 C2 2.32 2 3.64 2 5 C-0.64 5.33 -3.28 5.66 -6 6 C-4 4 -2 2 0 0 Z " fill="#383749" transform="translate(688,634)"/>
<path d="M0 0 C2.0625 1.75 2.0625 1.75 4 4 C3.82246387 7.01811422 3.16264785 7.83735215 1 10 C0 3.375 0 3.375 0 0 Z " fill="#4A4554" transform="translate(731,534)"/>
<path d="M0 0 C2 2 2 2 2.125 4.625 C2.08375 5.40875 2.0425 6.1925 2 7 C1.01 7 0.02 7 -1 7 C-1.625 4.625 -1.625 4.625 -2 2 C-1.34 1.34 -0.68 0.68 0 0 Z " fill="#494655" transform="translate(287,536)"/>
<path d="M0 0 C1.33597652 0.80814651 2.668725 1.62163181 4 2.4375 C5.11375 3.11619141 5.11375 3.11619141 6.25 3.80859375 C6.8275 4.20175781 7.405 4.59492188 8 5 C8 5.33 8 5.66 8 6 C5.125 6.1875 5.125 6.1875 2 6 C0 3 0 3 0 0 Z " fill="#3D3A4B" transform="translate(673,477)"/>
<path d="M0 0 C4.455 0.99 4.455 0.99 9 2 C8.01 2.99 7.02 3.98 6 5 C4.02 4.01 2.04 3.02 0 2 C0 1.34 0 0.68 0 0 Z " fill="#37354C" transform="translate(425,682)"/>
<path d="M0 0 C-2.91765 1.9451 -4.62537285 2.45276317 -8 3 C-8 2.34 -8 1.68 -8 1 C-8.99 0.67 -9.98 0.34 -11 0 C-3.57142857 -1.28571429 -3.57142857 -1.28571429 0 0 Z " fill="#3E3B4A" transform="translate(596,645)"/>
<path d="M0 0 C1.32 0 2.64 0 4 0 C4.33 2.64 4.66 5.28 5 8 C2.20127563 5.47211993 0.54226981 3.79588866 0 0 Z " fill="#343342" transform="translate(592,476)"/>
<path d="M0 0 C2.97 1.98 2.97 1.98 6 4 C5.67 4.99 5.34 5.98 5 7 C2.5 5.75 2.5 5.75 0 4 C0 2.68 0 1.36 0 0 Z " fill="#3B374A" transform="translate(699,450)"/>
<path d="M0 0 C2.31 0.66 4.62 1.32 7 2 C7 2.99 7 3.98 7 5 C4.03 4.505 4.03 4.505 1 4 C0.67 2.68 0.34 1.36 0 0 Z " fill="#3F3D4B" transform="translate(617,443)"/>
<path d="M0 0 C1 2 1 2 0.44140625 4.1640625 C0.15136719 4.97617187 -0.13867188 5.78828125 -0.4375 6.625 C-0.72496094 7.44226563 -1.01242187 8.25953125 -1.30859375 9.1015625 C-1.53675781 9.72804688 -1.76492188 10.35453125 -2 11 C-3.046875 9.12890625 -3.046875 9.12890625 -4 7 C-3.03284133 4.34031367 -1.58051758 2.37077638 0 0 Z " fill="#423F49" transform="translate(761,562)"/>
<path d="M0 0 C1.27351308 2.54702616 0.80191925 3.4282945 0.0625 6.125 C-0.13214844 6.84945312 -0.32679688 7.57390625 -0.52734375 8.3203125 C-0.68332031 8.87460937 -0.83929688 9.42890625 -1 10 C-3.29013653 6.5647952 -3.17842973 5.014669 -3 1 C-2.01 0.67 -1.02 0.34 0 0 Z " fill="#473D56" transform="translate(411,508)"/>
<path d="M0 0 C0.68707555 2.49064888 1 4.37886292 1 7 C-0.98 7.99 -0.98 7.99 -3 9 C-2.69181644 7.68647977 -2.37832335 6.37420428 -2.0625 5.0625 C-1.88847656 4.33160156 -1.71445312 3.60070312 -1.53515625 2.84765625 C-1 1 -1 1 0 0 Z " fill="#3B3744" transform="translate(457,495)"/>
<path d="M0 0 C0 3.57575896 -1.08840607 5.05295935 -3 8 C-4.32 7.67 -5.64 7.34 -7 7 C-4.69 4.69 -2.38 2.38 0 0 Z " fill="#49424E" transform="translate(465,487)"/>
<path d="M0 0 C2.31 0.66 4.62 1.32 7 2 C5.75 3.5625 5.75 3.5625 4 5 C1.8125 4.6875 1.8125 4.6875 0 4 C0 2.68 0 1.36 0 0 Z " fill="#2D3143" transform="translate(529,474)"/>
<path d="M0 0 C0 0.99 0 1.98 0 3 C-4.43076923 5.09230769 -4.43076923 5.09230769 -7.3125 4.625 C-7.869375 4.41875 -8.42625 4.2125 -9 4 C-6.02819057 2.10134397 -3.48539917 0.64544429 0 0 Z " fill="#323148" transform="translate(381,455)"/>
<path d="M0 0 C1.98 0 3.96 0 6 0 C5.01 1.485 5.01 1.485 4 3 C0.375 3.6875 0.375 3.6875 -3 4 C-2.67 3.01 -2.34 2.02 -2 1 C-1.34 1.33 -0.68 1.66 0 2 C0 1.34 0 0.68 0 0 Z " fill="#353242" transform="translate(699,244)"/>
<path d="M0 0 C0.33 0.99 0.66 1.98 1 3 C-0.75 5.0625 -0.75 5.0625 -3 7 C-4.32 6.67 -5.64 6.34 -7 6 C-4.69 4.02 -2.38 2.04 0 0 Z " fill="#3C3A4B" transform="translate(722,606)"/>
<path d="M0 0 C0.66 0.33 1.32 0.66 2 1 C0.66667905 4.99996286 -1.4957827 5.83782337 -5 8 C-4.45773019 4.20411134 -2.79872437 2.52788007 0 0 Z " fill="#443F4E" transform="translate(556,587)"/>
<path d="M0 0 C0.33 0 0.66 0 1 0 C1.33 2.97 1.66 5.94 2 9 C1.01 9.495 1.01 9.495 0 10 C-0.66 9.34 -1.32 8.68 -2 8 C-1.7578125 6.0546875 -1.7578125 6.0546875 -1.125 3.875 C-0.92132812 3.15054688 -0.71765625 2.42609375 -0.5078125 1.6796875 C-0.34023438 1.12539063 -0.17265625 0.57109375 0 0 Z " fill="#4D4A55" transform="translate(608,569)"/>
<path d="M0 0 C0.33 0.66 0.66 1.32 1 2 C1.99 2 2.98 2 4 2 C3.34 3.65 2.68 5.3 2 7 C0.4375 5.75 0.4375 5.75 -1 4 C-0.6875 1.8125 -0.6875 1.8125 0 0 Z " fill="#36303F" transform="translate(450,569)"/>
<path d="M0 0 C0.66 0.66 1.32 1.32 2 2 C1.34 3.65 0.68 5.3 0 7 C-0.99 7 -1.98 7 -3 7 C-1.125 2.25 -1.125 2.25 0 0 Z " fill="#232437" transform="translate(318,568)"/>
<path d="M0 0 C1.98 0 3.96 0 6 0 C6.33 1.32 6.66 2.64 7 4 C5.35 4 3.7 4 2 4 C1.34 2.68 0.68 1.36 0 0 Z " fill="#383345" transform="translate(682,439)"/>
<path d="M0 0 C0.433125 0.9590625 0.433125 0.9590625 0.875 1.9375 C1.82823451 4.15206079 1.82823451 4.15206079 4 5 C2.1875 5.6875 2.1875 5.6875 0 6 C-1.75 4.5625 -1.75 4.5625 -3 3 C-2.01 2.67 -1.02 2.34 0 2 C0 1.34 0 0.68 0 0 Z " fill="#212637" transform="translate(341,642)"/>
<path d="M0 0 C1.65 0 3.3 0 5 0 C5 0.66 5 1.32 5 2 C2.35261084 3.4606285 1.10551666 4 -2 4 C-1.34 2.68 -0.68 1.36 0 0 Z " fill="#3D3A47" transform="translate(533,601)"/>
<path d="M0 0 C0 3.57575896 -1.08840607 5.05295935 -3 8 C-3.99 7.34 -4.98 6.68 -6 6 C-4.02 4.02 -2.04 2.04 0 0 Z " fill="#424051" transform="translate(736,592)"/>
<path d="M0 0 C2.32472205 2.85306797 3.7508258 5.54074837 5 9 C4.01 9.495 4.01 9.495 3 10 C3 9.01 3 8.02 3 7 C2.01 6.67 1.02 6.34 0 6 C0 4.02 0 2.04 0 0 Z " fill="#3B394B" transform="translate(417,585)"/>
<path d="M0 0 C1.32 0 2.64 0 4 0 C4 1.32 4 2.64 4 4 C2.68 4.33 1.36 4.66 0 5 C-0.5625 3.0625 -0.5625 3.0625 -1 1 C-0.67 0.67 -0.34 0.34 0 0 Z " fill="#212336" transform="translate(275,587)"/>
<path d="M0 0 C0.99 0.495 0.99 0.495 2 1 C1.67 1.99 1.34 2.98 1 4 C0.67 2.68 0.34 1.36 0 0 Z M-2 2 C-0.515 2.99 -0.515 2.99 1 4 C0.67 5.32 0.34 6.64 0 8 C-0.99 7.01 -1.98 6.02 -3 5 C-2.67 4.01 -2.34 3.02 -2 2 Z " fill="#3F3C4C" transform="translate(468,587)"/>
<path d="M0 0 C0.99 0.66 1.98 1.32 3 2 C2.34 3.65 1.68 5.3 1 7 C0.01 6.67 -0.98 6.34 -2 6 C-1.34 4.02 -0.68 2.04 0 0 Z " fill="#36323F" transform="translate(603,583)"/>
<path d="M0 0 C0.99 0.33 1.98 0.66 3 1 C2.67 2.32 2.34 3.64 2 5 C0.35 5 -1.3 5 -3 5 C-2.01 3.35 -1.02 1.7 0 0 Z " fill="#383643" transform="translate(770,550)"/>
<path d="M0 0 C1.65 1.65 3.3 3.3 5 5 C4.01 6.485 4.01 6.485 3 8 C2.67 7.34 2.34 6.68 2 6 C1.01 5.67 0.02 5.34 -1 5 C-0.67 3.35 -0.34 1.7 0 0 Z " fill="#3B3944" transform="translate(726,528)"/>
<path d="M0 0 C0.66 0.66 1.32 1.32 2 2 C1.75 4.0625 1.75 4.0625 1 6 C0.01 6.495 0.01 6.495 -1 7 C-1 6.01 -1 5.02 -1 4 C-1.66 3.67 -2.32 3.34 -3 3 C-2.01 2.01 -1.02 1.02 0 0 Z " fill="#393542" transform="translate(302,518)"/>
<path d="M0 0 C0.33 0 0.66 0 1 0 C1.25 2.3125 1.25 2.3125 1 5 C-1 6.8125 -1 6.8125 -3 8 C-2.25 2.25 -2.25 2.25 0 0 Z " fill="#23202D" transform="translate(447,517)"/>
<path d="M0 0 C2.475 0.99 2.475 0.99 5 2 C4.34 3.65 3.68 5.3 3 7 C1.5 5.75 1.5 5.75 0 4 C0 2.68 0 1.36 0 0 Z " fill="#222537" transform="translate(763,512)"/>
<path d="M0 0 C1.32 0 2.64 0 4 0 C3.67 1.65 3.34 3.3 3 5 C0.525 4.01 0.525 4.01 -2 3 C-1.34 2.67 -0.68 2.34 0 2 C0 1.34 0 0.68 0 0 Z " fill="#403B4B" transform="translate(566,450)"/>
<path d="M0 0 C-2.38573379 1.89213369 -4.07175348 3.02391783 -7 4 C-7.33 3.01 -7.66 2.02 -8 1 C-3.375 -1.125 -3.375 -1.125 0 0 Z " fill="#393645" transform="translate(632,629)"/>
<path d="M0 0 C2.5 1.375 2.5 1.375 5 3 C5 3.66 5 4.32 5 5 C3.35 4.67 1.7 4.34 0 4 C0 2.68 0 1.36 0 0 Z " fill="#313243" transform="translate(316,623)"/>
<path d="M0 0 C1.9451 2.91765 2.45276317 4.62537285 3 8 C1.68 8 0.36 8 -1 8 C-0.67 5.36 -0.34 2.72 0 0 Z " fill="#555265" transform="translate(412,572)"/>
<path d="M0 0 C1.32 1.65 2.64 3.3 4 5 C3.01 5 2.02 5 1 5 C0.67 5.99 0.34 6.98 0 8 C-1.125 2.25 -1.125 2.25 0 0 Z " fill="#39394B" transform="translate(259,563)"/>
<path d="M0 0 C1.32 0.33 2.64 0.66 4 1 C3.34 2.65 2.68 4.3 2 6 C1.67 5.34 1.34 4.68 1 4 C0.01 4 -0.98 4 -2 4 C-2 3.34 -2 2.68 -2 2 C-1.34 2 -0.68 2 0 2 C0 1.34 0 0.68 0 0 Z " fill="#3B384F" transform="translate(245,529)"/>
<path d="M0 0 C1.9375 0.6875 1.9375 0.6875 4 2 C4.75 4.625 4.75 4.625 5 7 C4.01 7.495 4.01 7.495 3 8 C2.01 5.36 1.02 2.72 0 0 Z " fill="#34313F" transform="translate(603,495)"/>
<path d="M0 0 C1.32 0 2.64 0 4 0 C4 0.99 4 1.98 4 3 C2.02 3.99 2.02 3.99 0 5 C-0.33 4.01 -0.66 3.02 -1 2 C-0.67 1.34 -0.34 0.68 0 0 Z " fill="#282635" transform="translate(458,495)"/>
<path d="M0 0 C0.66 0.99 1.32 1.98 2 3 C0.68 3.99 -0.64 4.98 -2 6 C-2 2 -2 2 0 0 Z M2 1 C4 2 4 2 4 2 Z " fill="#353442" transform="translate(337,484)"/>
<path d="M0 0 C0.66 0.33 1.32 0.66 2 1 C1.38125 1.0825 0.7625 1.165 0.125 1.25 C-2.18437567 1.81258459 -2.18437567 1.81258459 -3.25 4.0625 C-3.4975 4.701875 -3.745 5.34125 -4 6 C-4.99 5.34 -5.98 4.68 -7 4 C-1.7265625 0.77734375 -1.7265625 0.77734375 0 0 Z " fill="#4D4C5B" transform="translate(481,477)"/>
<path d="M0 0 C0.66 0 1.32 0 2 0 C2 1.32 2 2.64 2 4 C2.66 4.33 3.32 4.66 4 5 C2.35 5.33 0.7 5.66 -1 6 C-1.33 5.34 -1.66 4.68 -2 4 C-1.34 3.67 -0.68 3.34 0 3 C0 2.01 0 1.02 0 0 Z " fill="#202435" transform="translate(527,474)"/>
</svg>
